# xmcd
#
# Track frame offsets:
#	150
#	12535
#	26297
#	41283
#	55911
#	73802
#	89653
#	114662
#	134346
#	152278
#	168388
#	184126
#	200184
#	217276
#	230559
#	244069
#	262772
#
# Disc length: 3692 seconds
#
# Revision: 484144406
# Processed by: cddbd v1.5.2PL0 Copyright (c) Steve Scherf et al.
# Submitted via: EZCDAudioConverter 8.0.3.1
#
DISCID=f30e6a11
DTITLE=Toby Keith - 35 Biggest Hits
DYEAR=2008
DGENRE=Country
TTITLE0=Toby Keith - I'm Just Talkin' About Tonight
TTITLE1=Toby Keith - I Wanna Talk About Me
TTITLE2=Toby Keith - My List
TTITLE3=Toby Keith - Courtesy Of The Red, White and Blue (The Angry American)
TTITLE4=Toby Keith - Who's Your Daddy?
TTITLE5=Toby Keith and Willie Nelson - Beer For My Horses
TTITLE6=Toby Keith - I Love This Bar
TTITLE7=Toby Keith - American Soldier
TTITLE8=Toby Keith - Whiskey Girl
TTITLE9=Toby Keith - Stays In Mexico
TTITLE10=Toby Keith and Krystal Keith - Mockingbird
TTITLE11=Toby Keith - Honkytonk U
TTITLE12=Toby Keith - As Good As I Once Was
TTITLE13=Toby Keith - Big Blue Note
TTITLE14=Toby Keith - Get Drunk And Be Somebody
TTITLE15=Toby Keith - A Little Too Late
TTITLE16=Toby Keith - She's A Hottie
EXTD=
EXTT0=
EXTT1=
EXTT2=
EXTT3=
EXTT4=
EXTT5=
EXTT6=
EXTT7=
EXTT8=
EXTT9=
EXTT10=
EXTT11=
EXTT12=
EXTT13=
EXTT14=
EXTT15=
EXTT16=
PLAYORDER=
